<?xml version="1.0" encoding="UTF-8" standalone="no"?>
<svg
   fill="none"
   width="210mm"
   version="1.1"
   viewBox="0 0 793.70079 559.37008"

   height="148mm"
   xmlns:xlink="http://www.w3.org/1999/xlink"
   xmlns="http://www.w3.org/2000/svg">
  <defs
     id="defs2">
    <linearGradient
       id="swatch25">
      <stop
         style="stop-color:#757171;stop-opacity:1;"
         offset="0"
         id="stop25" />
    </linearGradient>
    <linearGradient
       id="linearGradient2">
      <stop
         offset="0"
         stop-color="#000"
         stop-opacity="1"
         id="stop1" />
      <stop
         offset="1"
         stop-color="#000"
         stop-opacity="0"
         id="stop2" />
    </linearGradient>
    <linearGradient
       xlink:href="#swatch25"
       id="linearGradient25"
       x1="19"
       y1="168.25"
       x2="551"
       y2="168.25"
       gradientUnits="userSpaceOnUse" />
    <linearGradient
       xlink:href="#swatch25"
       id="linearGradient26"
       x1="19"
       y1="155.67252"
       x2="551"
       y2="155.67252"
       gradientUnits="userSpaceOnUse" />
    <linearGradient
       xlink:href="#swatch25"
       id="linearGradient27"
       x1="19"
       y1="143.09505"
       x2="551"
       y2="143.09505"
       gradientUnits="userSpaceOnUse" />
    <linearGradient
       xlink:href="#swatch25"
       id="linearGradient28"
       x1="19"
       y1="130.51756"
       x2="551"
       y2="130.51756"
       gradientUnits="userSpaceOnUse" />
    <linearGradient
       xlink:href="#swatch25"
       id="linearGradient29"
       x1="19"
       y1="117.94009"
       x2="551"
       y2="117.94009"
       gradientUnits="userSpaceOnUse" />
    <linearGradient
       xlink:href="#swatch25"
       id="linearGradient30"
       x1="19"
       y1="105.36261"
       x2="551"
       y2="105.36261"
       gradientUnits="userSpaceOnUse" />
    <linearGradient
       xlink:href="#swatch25"
       id="linearGradient25-8"
       x1="19"
       y1="168.25"
       x2="551"
       y2="168.25"
       gradientUnits="userSpaceOnUse" />
    <linearGradient
       xlink:href="#swatch25"
       id="linearGradient26-8"
       x1="19"
       y1="155.67252"
       x2="551"
       y2="155.67252"
       gradientUnits="userSpaceOnUse" />
    <linearGradient
       xlink:href="#swatch25"
       id="linearGradient27-5"
       x1="19"
       y1="143.09505"
       x2="551"
       y2="143.09505"
       gradientUnits="userSpaceOnUse" />
    <linearGradient
       xlink:href="#swatch25"
       id="linearGradient28-4"
       x1="19"
       y1="130.51756"
       x2="551"
       y2="130.51756"
       gradientUnits="userSpaceOnUse" />
    <linearGradient
       xlink:href="#swatch25"
       id="linearGradient29-3"
       x1="19"
       y1="117.94009"
       x2="551"
       y2="117.94009"
       gradientUnits="userSpaceOnUse" />
    <linearGradient
       xlink:href="#swatch25"
       id="linearGradient30-6"
       x1="19"
       y1="105.36261"
       x2="551"
       y2="105.36261"
       gradientUnits="userSpaceOnUse" />
  </defs>
  <g
     id="g1"
     transform="translate(-4.6496063,-1.3149606)">
    <text
       xml:space="preserve"
       x="397.035"
       y="268.69299"
       fill="#000000"
       id="text2"><tspan
         x="397.035"
         y="268.69299"
         id="tspan2" /></text>
    <text
       xml:space="preserve"
       x="360.92401"
       y="161.903"
       fill="none"
       fill-opacity="1"
       stroke="#000000"
       stroke-opacity="1"
       font-family="sans-serif"
       font-size="8px"
       font-stretch="normal"
       font-style="normal"
       font-variant="normal"
       font-weight="400"
       style="-inkscape-font-specification:sans-serif"
       id="text3"><tspan
         x="360.92401"
         y="161.903"
         font-family="sans-serif"
         font-stretch="normal"
         font-style="normal"
         font-variant="normal"
         font-weight="400"
         style="-inkscape-font-specification:sans-serif"
         id="tspan3" /></text>
    <rect
       width="555"
       height="328"
       x="124"
       y="117"
       stroke="#000000"
       stroke-width="2"
       rx="31"
       id="rect4" />
    <line
       x1="172.23834"
       x2="655.16925"
       y1="215.35095"
       y2="215.35095"
       stroke="#000000"
       stroke-linecap="round"
       stroke-width="0.476696"
       id="line12-4"
       style="fill:#666666;stroke:url(#linearGradient30-6)" />
    <line
       x1="172.23834"
       x2="655.16925"
       y1="227.93311"
       y2="227.93311"
       stroke="#000000"
       stroke-linecap="round"
       stroke-width="0.476696"
       id="line12-4-5"
       style="fill:#666666;stroke:url(#linearGradient29-3)" />
    <line
       x1="172.23834"
       x2="655.16925"
       y1="240.51523"
       y2="240.51523"
       stroke="#000000"
       stroke-linecap="round"
       stroke-width="0.476696"
       id="line12-4-7"
       style="fill:#666666;stroke:url(#linearGradient28-4)" />
    <line
       x1="172.23834"
       x2="655.16925"
       y1="253.09738"
       y2="253.09738"
       stroke="#000000"
       stroke-linecap="round"
       stroke-width="0.476696"
       id="line12-4-77"
       style="fill:#666666;stroke:url(#linearGradient27-5)" />
    <line
       x1="172.23834"
       x2="655.16925"
       y1="265.6795"
       y2="265.6795"
       stroke="#000000"
       stroke-linecap="round"
       stroke-width="0.476696"
       id="line12-4-3"
       style="fill:#666666;stroke:url(#linearGradient26-8)" />
    <line
       x1="172.23834"
       x2="655.16925"
       y1="278.26166"
       y2="278.26166"
       stroke="#000000"
       stroke-linecap="round"
       stroke-width="0.476696"
       id="line12-4-3-7"
       style="fill:#666666;stroke:url(#linearGradient25-8)" />
    <path
       fill="#000000"
       d="M 148.88,195.27 V 200 h -1.1 v -7 h 1.1 l 2.71,4.7 V 193 h 1.11 v 7 h -1.11 z m 9.1339,2.89 c 0,0.56 -0.1533,1.0233 -0.46,1.39 -0.3067,0.3667 -0.77,0.55 -1.39,0.55 -0.62,0 -1.09,-0.1833 -1.41,-0.55 -0.3133,-0.3733 -0.47,-0.8367 -0.47,-1.39 v -1.32 c 0,-0.6333 0.16,-1.1167 0.48,-1.45 0.3267,-0.34 0.7933,-0.51 1.4,-0.51 0.58,0 1.0333,0.1767 1.36,0.53 0.3267,0.3467 0.49,0.8233 0.49,1.43 z m -1.09,-1.32 c 0,-0.3533 -0.0733,-0.5833 -0.22,-0.69 -0.1467,-0.1067 -0.3267,-0.16 -0.54,-0.16 -0.52,0 -0.78,0.2833 -0.78,0.85 v 1.42 c 0,0.2667 0.0733,0.46 0.22,0.58 0.1467,0.12 0.3333,0.18 0.56,0.18 0.22,0 0.4,-0.0633 0.54,-0.19 0.1467,-0.1267 0.22,-0.3167 0.22,-0.57 z m 3.4424,3.29 c -1.0134,-0.02 -1.52,-0.5033 -1.52,-1.45 V 193 h 1.12 v 1.99 h 0.95 l -0.24,1.03 h -0.71 v 2.66 c 0,0.2267 0.0633,0.38 0.19,0.46 0.1266,0.0733 0.3066,0.11 0.54,0.11 z m 2.2441,-1.62 c 0,0.1867 0.05,0.3333 0.15,0.44 0.1067,0.1 0.26,0.15 0.46,0.15 0.3067,0 0.7167,-0.1333 1.23,-0.4 l 0.4,0.95 c -0.24,0.1533 -0.5133,0.27 -0.82,0.35 -0.3067,0.08 -0.6133,0.12 -0.92,0.12 -0.4933,0 -0.8867,-0.12 -1.18,-0.36 -0.2867,-0.2467 -0.43,-0.6133 -0.43,-1.1 v -2.05 c 0,-0.54 0.1667,-0.96 0.5,-1.26 0.34,-0.3 0.7867,-0.45 1.34,-0.45 0.5533,0 0.9833,0.15 1.29,0.45 0.3133,0.2933 0.47,0.7033 0.47,1.23 v 1.52 l -2.49,0.13 z m 1.38,-1.91 c 0,-0.2 -0.0633,-0.3533 -0.19,-0.46 -0.1267,-0.1067 -0.2833,-0.16 -0.47,-0.16 -0.2533,0 -0.4367,0.0667 -0.55,0.2 -0.1133,0.1333 -0.17,0.28 -0.17,0.44 v 0.6 l 1.38,-0.09 z m 2.9559,2.02 c 0,0.12 0.06,0.2333 0.18,0.34 0.1267,0.1067 0.3167,0.16 0.57,0.16 0.22,0 0.39,-0.0533 0.51,-0.16 0.12,-0.1133 0.18,-0.2433 0.18,-0.39 0,-0.2067 -0.0766,-0.36 -0.23,-0.46 -0.1466,-0.1 -0.3866,-0.21 -0.72,-0.33 -0.2866,-0.0933 -0.5233,-0.1867 -0.71,-0.28 -0.1866,-0.0933 -0.3533,-0.2333 -0.5,-0.42 -0.1466,-0.1867 -0.2333,-0.43 -0.26,-0.73 -0.02,-0.2267 0.0234,-0.4533 0.13,-0.68 0.1134,-0.2333 0.3,-0.4233 0.56,-0.57 0.2667,-0.1533 0.6067,-0.23 1.02,-0.23 0.2134,0 0.4,0.0233 0.56,0.07 0.1667,0.04 0.2967,0.0833 0.39,0.13 0.0934,0.0467 0.15,0.0767 0.17,0.09 l -0.32,1.02 c -0.0133,-0.0133 -0.05,-0.0367 -0.11,-0.07 -0.0533,-0.04 -0.14,-0.0767 -0.26,-0.11 -0.12,-0.0333 -0.2633,-0.05 -0.43,-0.05 -0.36,0 -0.54,0.1 -0.54,0.3 0,0.04 0.007,0.08 0.02,0.12 0.02,0.0933 0.09,0.1733 0.21,0.24 0.12,0.06 0.2967,0.1333 0.53,0.22 0.3267,0.12 0.6,0.24 0.82,0.36 0.2267,0.1133 0.42,0.2867 0.58,0.52 0.1667,0.2267 0.25,0.52 0.25,0.88 0,0.2733 -0.0666,0.53 -0.2,0.77 -0.1333,0.2333 -0.34,0.4233 -0.62,0.57 -0.2733,0.147 -0.6166,0.22 -1.03,0.22 -0.38,0 -0.71,-0.063 -0.99,-0.19 -0.2733,-0.1333 -0.4833,-0.3067 -0.63,-0.52 -0.14,-0.2133 -0.2166,-0.45 -0.23,-0.71 z"
       id="path5" />
    <line
       x1="137.25"
       x2="668.75"
       y1="299.75"
       y2="299.75"
       stroke="#000000"
       stroke-linecap="round"
       stroke-width="0.5"
       id="line12" />
    <path
       fill="#000000"
       d="m 150.45,334.17 h -1.61 l -0.39,1.83 h -1.24 l 1.64,-7 h 1.55 l 1.77,7 h -1.31 z M 149.1,333 h 1.09 l -0.57,-2.16 z m 3.7581,-0.46 c 0,-0.7 0.2834,-1.18 0.85,-1.44 0.2734,-0.133 0.5934,-0.2 0.96,-0.2 0.3134,0 0.5767,0.04 0.79,0.12 V 329 h 1.09 v 7 l -0.55,0.05 c -0.4333,0.047 -0.7733,0.07 -1.02,0.07 -0.2466,0 -0.48,-0.023 -0.7,-0.07 -0.2133,-0.047 -0.4266,-0.123 -0.64,-0.23 -0.24,-0.12 -0.43,-0.297 -0.57,-0.53 -0.14,-0.233 -0.21,-0.52 -0.21,-0.86 z m 2.6,-0.36 c -0.24,-0.113 -0.4633,-0.17 -0.67,-0.17 -0.24,0 -0.44,0.077 -0.6,0.23 -0.16,0.153 -0.24,0.387 -0.24,0.7 v 1.56 c 0,0.173 0.0934,0.317 0.28,0.43 0.1867,0.113 0.4234,0.17 0.71,0.17 0.18,0 0.3534,-0.023 0.52,-0.07 z m 2.4586,0.36 c 0,-0.7 0.2834,-1.18 0.85,-1.44 0.2734,-0.133 0.5934,-0.2 0.96,-0.2 0.3134,0 0.5767,0.04 0.79,0.12 V 329 h 1.09 v 7 l -0.55,0.05 c -0.4333,0.047 -0.7733,0.07 -1.02,0.07 -0.2466,0 -0.48,-0.023 -0.7,-0.07 -0.2133,-0.047 -0.4266,-0.123 -0.64,-0.23 -0.24,-0.12 -0.43,-0.297 -0.57,-0.53 -0.14,-0.233 -0.21,-0.52 -0.21,-0.86 z m 2.6,-0.36 c -0.24,-0.113 -0.4633,-0.17 -0.67,-0.17 -0.24,0 -0.44,0.077 -0.6,0.23 -0.16,0.153 -0.24,0.387 -0.24,0.7 v 1.56 c 0,0.173 0.0934,0.317 0.28,0.43 0.1867,0.113 0.4234,0.17 0.71,0.17 0.18,0 0.3534,-0.023 0.52,-0.07 z m 2.0933,-1.19 h 1.02 l 0.08,0.04 c 0.2733,-0.093 0.53,-0.14 0.77,-0.14 0.1667,0 0.41,0.033 0.73,0.1 l 0.2,0.04 -0.26,1.07 c -0.1867,-0.093 -0.37,-0.14 -0.55,-0.14 -0.2467,0 -0.4567,0.077 -0.63,0.23 -0.1733,0.147 -0.26,0.343 -0.26,0.59 V 336 h -1.1 z m 4.1703,3.52 c 0,0.187 0.05,0.333 0.15,0.44 0.1067,0.1 0.26,0.15 0.46,0.15 0.3067,0 0.7167,-0.133 1.23,-0.4 l 0.4,0.95 c -0.24,0.153 -0.5133,0.27 -0.82,0.35 -0.3067,0.08 -0.6133,0.12 -0.92,0.12 -0.4933,0 -0.8867,-0.12 -1.18,-0.36 -0.2867,-0.247 -0.43,-0.613 -0.43,-1.1 v -2.05 c 0,-0.54 0.1667,-0.96 0.5,-1.26 0.34,-0.3 0.7867,-0.45 1.34,-0.45 0.5533,0 0.9833,0.15 1.29,0.45 0.3133,0.293 0.47,0.703 0.47,1.23 v 1.52 l -2.49,0.13 z m 1.38,-1.91 c 0,-0.2 -0.0633,-0.353 -0.19,-0.46 -0.1267,-0.107 -0.2833,-0.16 -0.47,-0.16 -0.2533,0 -0.4367,0.067 -0.55,0.2 -0.1133,0.133 -0.17,0.28 -0.17,0.44 v 0.6 l 1.38,-0.09 z m 2.956,2.02 c 0,0.12 0.06,0.233 0.18,0.34 0.1266,0.107 0.3166,0.16 0.57,0.16 0.22,0 0.39,-0.053 0.51,-0.16 0.12,-0.113 0.18,-0.243 0.18,-0.39 0,-0.207 -0.0767,-0.36 -0.23,-0.46 -0.1467,-0.1 -0.3867,-0.21 -0.72,-0.33 -0.2867,-0.093 -0.5234,-0.187 -0.71,-0.28 -0.1867,-0.093 -0.3534,-0.233 -0.5,-0.42 -0.1467,-0.187 -0.2334,-0.43 -0.26,-0.73 -0.02,-0.227 0.0233,-0.453 0.13,-0.68 0.1133,-0.233 0.3,-0.423 0.56,-0.57 0.2666,-0.153 0.6066,-0.23 1.02,-0.23 0.2133,0 0.4,0.023 0.56,0.07 0.1666,0.04 0.2966,0.083 0.39,0.13 0.0933,0.047 0.15,0.077 0.17,0.09 l -0.32,1.02 c -0.0134,-0.013 -0.05,-0.037 -0.11,-0.07 -0.0534,-0.04 -0.14,-0.077 -0.26,-0.11 -0.12,-0.033 -0.2634,-0.05 -0.43,-0.05 -0.36,0 -0.54,0.1 -0.54,0.3 0,0.04 0.007,0.08 0.02,0.12 0.02,0.093 0.09,0.173 0.21,0.24 0.12,0.06 0.2966,0.133 0.53,0.22 0.3266,0.12 0.6,0.24 0.82,0.36 0.2266,0.113 0.42,0.287 0.58,0.52 0.1666,0.227 0.25,0.52 0.25,0.88 0,0.273 -0.0667,0.53 -0.2,0.77 -0.1334,0.233 -0.34,0.423 -0.62,0.57 -0.2734,0.147 -0.6167,0.22 -1.03,0.22 -0.38,0 -0.71,-0.063 -0.99,-0.19 -0.2734,-0.133 -0.4834,-0.307 -0.63,-0.52 -0.14,-0.213 -0.2167,-0.45 -0.23,-0.71 z m 4.3066,0 c 0,0.12 0.06,0.233 0.18,0.34 0.1267,0.107 0.3167,0.16 0.57,0.16 0.22,0 0.39,-0.053 0.51,-0.16 0.12,-0.113 0.18,-0.243 0.18,-0.39 0,-0.207 -0.0767,-0.36 -0.23,-0.46 -0.1467,-0.1 -0.3867,-0.21 -0.72,-0.33 -0.2867,-0.093 -0.5233,-0.187 -0.71,-0.28 -0.1867,-0.093 -0.3533,-0.233 -0.5,-0.42 -0.1467,-0.187 -0.2333,-0.43 -0.26,-0.73 -0.02,-0.227 0.0233,-0.453 0.13,-0.68 0.1133,-0.233 0.3,-0.423 0.56,-0.57 0.2667,-0.153 0.6067,-0.23 1.02,-0.23 0.2133,0 0.4,0.023 0.56,0.07 0.1667,0.04 0.2967,0.083 0.39,0.13 0.0933,0.047 0.15,0.077 0.17,0.09 l -0.32,1.02 c -0.0133,-0.013 -0.05,-0.037 -0.11,-0.07 -0.0533,-0.04 -0.14,-0.077 -0.26,-0.11 -0.12,-0.033 -0.2633,-0.05 -0.43,-0.05 -0.36,0 -0.54,0.1 -0.54,0.3 0,0.04 0.007,0.08 0.02,0.12 0.02,0.093 0.09,0.173 0.21,0.24 0.12,0.06 0.2967,0.133 0.53,0.22 0.3267,0.12 0.6,0.24 0.82,0.36 0.2267,0.113 0.42,0.287 0.58,0.52 0.1667,0.227 0.25,0.52 0.25,0.88 0,0.273 -0.0667,0.53 -0.2,0.77 -0.1333,0.233 -0.34,0.423 -0.62,0.57 -0.2733,0.147 -0.6167,0.22 -1.03,0.22 -0.38,0 -0.71,-0.063 -0.99,-0.19 -0.2733,-0.133 -0.4833,-0.307 -0.63,-0.52 -0.14,-0.213 -0.2167,-0.45 -0.23,-0.71 z"
       id="path13" />
    <rect
       width="34.5"
       height="15.5"
       x="187.25"
       y="324.25"
       stroke="#000000"
       stroke-width="0.5"
       rx="7.75"
       id="rect13" />
    <path
       fill="#000000"
       d="m 193.624,329.4 h 1.824 c 0.56,0 0.9733,0.181 1.24,0.544 0.272,0.357 0.408,0.808 0.408,1.352 0,1.429 -0.5253,2.144 -1.576,2.144 h -1.016 V 335 h -0.88 z m 1.632,3.2 c 0.304,0 0.5253,-0.067 0.664,-0.2 0.144,-0.133 0.2293,-0.283 0.256,-0.448 0.0267,-0.171 0.04,-0.384 0.04,-0.64 0,-0.283 -0.04,-0.499 -0.12,-0.648 -0.0747,-0.155 -0.184,-0.256 -0.328,-0.304 -0.1387,-0.053 -0.32,-0.08 -0.544,-0.08 h -0.72 v 2.32 z m 6.1103,-3.208 v 4.12 c 0,0.539 -0.1654,0.931 -0.496,1.176 -0.3254,0.245 -0.72,0.368 -1.184,0.368 -0.464,0 -0.8614,-0.123 -1.192,-0.368 -0.3307,-0.245 -0.496,-0.637 -0.496,-1.176 v -4.12 h 0.88 v 3.768 c 0,0.363 0.0533,0.627 0.16,0.792 0.112,0.16 0.3253,0.24 0.64,0.24 0.32,0 0.5333,-0.08 0.64,-0.24 0.112,-0.165 0.168,-0.429 0.168,-0.792 v -3.768 z m 1.1952,0.008 h 1.632 c 0.4427,0 0.8107,0.123 1.104,0.368 0.2933,0.245 0.44,0.595 0.44,1.048 0,0.213 -0.0347,0.416 -0.104,0.608 -0.0693,0.192 -0.2107,0.36 -0.424,0.504 l -0.008,0.016 v 0.008 c 0.2347,0.107 0.4293,0.277 0.584,0.512 0.16,0.235 0.24,0.533 0.24,0.896 0,0.277 -0.056,0.541 -0.168,0.792 -0.112,0.245 -0.296,0.448 -0.552,0.608 -0.256,0.16 -0.5867,0.24 -0.992,0.24 h -1.752 z m 1.264,2.296 c 0.304,0 0.528,-0.056 0.672,-0.168 0.144,-0.112 0.216,-0.304 0.216,-0.576 0,-0.251 -0.0667,-0.424 -0.2,-0.52 -0.1333,-0.101 -0.336,-0.152 -0.608,-0.152 h -0.464 v 1.416 z m 0.104,2.496 c 0.2453,0 0.4427,-0.019 0.592,-0.056 0.1547,-0.043 0.2747,-0.125 0.36,-0.248 0.0907,-0.123 0.136,-0.304 0.136,-0.544 0,-0.304 -0.0933,-0.512 -0.28,-0.624 -0.1867,-0.117 -0.432,-0.176 -0.736,-0.176 h -0.56 v 1.648 z m 3.0304,-4.792 h 0.8801 v 4.792 h 2.008 V 335 h -2.8881 z m 3.8831,0.864 -0.496,-0.016 V 329.4 h 1.376 v 5.6 h -0.88 z m 4.94,4.552 c -0.474,0.176 -0.917,0.264 -1.328,0.264 -0.464,0 -0.84,-0.123 -1.128,-0.368 -0.288,-0.245 -0.432,-0.637 -0.432,-1.176 v -2.568 c 0,-0.405 0.056,-0.712 0.168,-0.92 0.118,-0.208 0.294,-0.384 0.528,-0.528 0.235,-0.133 0.523,-0.2 0.864,-0.2 0.416,0 0.792,0.088 1.128,0.264 l -0.248,0.8 c -0.245,-0.091 -0.514,-0.136 -0.808,-0.136 -0.224,0 -0.405,0.061 -0.544,0.184 -0.138,0.123 -0.208,0.277 -0.208,0.464 v 2.624 c 0,0.448 0.251,0.672 0.752,0.672 0.16,0 0.32,-0.016 0.48,-0.048 0.16,-0.037 0.374,-0.091 0.64,-0.16 z"
       id="path14" />
    <path
       stroke="#000000"
       stroke-linecap="round"
       d="m 157,352 h -3 c -3.866,0 -7,3.134 -7,7 v 3"
       id="path15" />
    <path
       stroke="#000000"
       stroke-linecap="round"
       d="m 384,362 v -3 c 0,-3.866 -3.134,-7 -7,-7 h -3"
       id="path16" />
    <path
       stroke="#000000"
       stroke-linecap="round"
       d="m 147,410 v 3 c 0,3.866 3.134,7 7,7 h 3"
       id="path17" />
    <path
       stroke="#000000"
       stroke-linecap="round"
       d="m 374,420 h 3 c 3.866,0 7,-3.134 7,-7 v -3"
       id="path18" />
    <line
       x1="403.25"
       x2="403.25"
       y1="312.25"
       y2="421.75"
       stroke="#000000"
       stroke-linecap="round"
       stroke-width="0.5"
       id="line18" />
    <path
       fill="#000000"
       d="m 420.04,332.3 -1.17,3.7 h -0.84 l -1.15,-3.69 V 336 h -1.1 v -7 h 1.1 l 1.57,4.63 1.59,-4.63 h 1.1 v 7 h -1.1 z m 5.133,0.55 c 0,-0.267 -0.076,-0.48 -0.23,-0.64 -0.146,-0.167 -0.346,-0.25 -0.6,-0.25 -0.206,0 -0.43,0.06 -0.67,0.18 V 336 h -1.09 v -5.01 h 0.97 l 0.13,0.06 c 0.28,-0.093 0.57,-0.14 0.87,-0.14 0.334,0 0.624,0.06 0.87,0.18 0.267,0.12 0.474,0.3 0.62,0.54 0.154,0.24 0.23,0.543 0.23,0.91 V 336 h -1.1 z m 3.23,1.66 c 0,0.187 0.05,0.333 0.15,0.44 0.107,0.1 0.26,0.15 0.46,0.15 0.307,0 0.717,-0.133 1.23,-0.4 l 0.4,0.95 c -0.24,0.153 -0.513,0.27 -0.82,0.35 -0.306,0.08 -0.613,0.12 -0.92,0.12 -0.493,0 -0.886,-0.12 -1.18,-0.36 -0.286,-0.247 -0.43,-0.613 -0.43,-1.1 v -2.05 c 0,-0.54 0.167,-0.96 0.5,-1.26 0.34,-0.3 0.787,-0.45 1.34,-0.45 0.554,0 0.984,0.15 1.29,0.45 0.314,0.293 0.47,0.703 0.47,1.23 v 1.52 l -2.49,0.13 z m 1.38,-1.91 c 0,-0.2 -0.063,-0.353 -0.19,-0.46 -0.126,-0.107 -0.283,-0.16 -0.47,-0.16 -0.253,0 -0.436,0.067 -0.55,0.2 -0.113,0.133 -0.17,0.28 -0.17,0.44 v 0.6 l 1.38,-0.09 z m 7.416,0.36 c 0,-0.36 -0.05,-0.62 -0.15,-0.78 -0.093,-0.16 -0.246,-0.24 -0.46,-0.24 -0.153,0 -0.36,0.047 -0.62,0.14 l -0.17,0.07 c 0.014,0.04 0.024,0.087 0.03,0.14 0.007,0.053 0.01,0.103 0.01,0.15 V 336 h -1.1 v -3.01 c 0,-0.333 -0.076,-0.59 -0.23,-0.77 -0.153,-0.18 -0.36,-0.27 -0.62,-0.27 -0.233,0 -0.476,0.073 -0.73,0.22 V 336 h -1.1 v -5.01 h 0.97 l 0.13,0.07 c 0.22,-0.1 0.47,-0.15 0.75,-0.15 0.227,0 0.447,0.04 0.66,0.12 0.214,0.073 0.4,0.193 0.56,0.36 0.094,-0.053 0.234,-0.127 0.42,-0.22 0.394,-0.18 0.774,-0.27 1.14,-0.27 0.474,0 0.86,0.147 1.16,0.44 0.3,0.287 0.45,0.687 0.45,1.2 V 336 h -1.1 z m 6.002,1.2 c 0,0.56 -0.153,1.023 -0.46,1.39 -0.306,0.367 -0.77,0.55 -1.39,0.55 -0.62,0 -1.09,-0.183 -1.41,-0.55 -0.313,-0.373 -0.47,-0.837 -0.47,-1.39 v -1.32 c 0,-0.633 0.16,-1.117 0.48,-1.45 0.327,-0.34 0.794,-0.51 1.4,-0.51 0.58,0 1.034,0.177 1.36,0.53 0.327,0.347 0.49,0.823 0.49,1.43 z m -1.09,-1.32 c 0,-0.353 -0.073,-0.583 -0.22,-0.69 -0.146,-0.107 -0.326,-0.16 -0.54,-0.16 -0.52,0 -0.78,0.283 -0.78,0.85 v 1.42 c 0,0.267 0.074,0.46 0.22,0.58 0.147,0.12 0.334,0.18 0.56,0.18 0.22,0 0.4,-0.063 0.54,-0.19 0.147,-0.127 0.22,-0.317 0.22,-0.57 z m 4.713,0.01 c 0,-0.267 -0.077,-0.48 -0.23,-0.64 -0.147,-0.167 -0.347,-0.25 -0.6,-0.25 -0.207,0 -0.43,0.06 -0.67,0.18 V 336 h -1.09 v -5.01 h 0.97 l 0.13,0.06 c 0.28,-0.093 0.57,-0.14 0.87,-0.14 0.333,0 0.623,0.06 0.87,0.18 0.266,0.12 0.473,0.3 0.62,0.54 0.153,0.24 0.23,0.543 0.23,0.91 V 336 h -1.1 z m 3.15,-2.77 c -0.16,0 -0.3,-0.06 -0.42,-0.18 -0.12,-0.12 -0.18,-0.26 -0.18,-0.42 0,-0.153 0.06,-0.287 0.18,-0.4 0.12,-0.12 0.26,-0.18 0.42,-0.18 0.153,0 0.286,0.06 0.4,0.18 0.12,0.113 0.18,0.247 0.18,0.4 0,0.16 -0.06,0.3 -0.18,0.42 -0.114,0.12 -0.247,0.18 -0.4,0.18 z m -0.58,0.91 h 1.1 V 336 h -1.1 z m 5.221,4.95 c -0.413,0.107 -0.813,0.16 -1.2,0.16 -0.36,0 -0.66,-0.04 -0.9,-0.12 -0.393,-0.133 -0.68,-0.337 -0.86,-0.61 -0.173,-0.28 -0.26,-0.67 -0.26,-1.17 v -1.28 c 0,-0.66 0.173,-1.16 0.52,-1.5 0.347,-0.347 0.793,-0.52 1.34,-0.52 0.433,0 0.88,0.107 1.34,0.32 l -0.3,0.95 c -0.32,-0.127 -0.607,-0.19 -0.86,-0.19 -0.3,0 -0.533,0.083 -0.7,0.25 -0.16,0.167 -0.24,0.377 -0.24,0.63 v 1.45 c 0,0.253 0.09,0.433 0.27,0.54 0.18,0.107 0.41,0.16 0.69,0.16 0.16,0 0.32,-0.017 0.48,-0.05 0.16,-0.033 0.287,-0.067 0.38,-0.1 z m 3.811,-6.94 h 2.28 c 0.7,0 1.217,0.227 1.55,0.68 0.34,0.447 0.51,1.01 0.51,1.69 0,1.787 -0.656,2.68 -1.97,2.68 h -1.27 V 336 h -1.1 z m 2.04,4 c 0.38,0 0.657,-0.083 0.83,-0.25 0.18,-0.167 0.287,-0.353 0.32,-0.56 0.034,-0.213 0.05,-0.48 0.05,-0.8 0,-0.353 -0.05,-0.623 -0.15,-0.81 -0.093,-0.193 -0.23,-0.32 -0.41,-0.38 -0.173,-0.067 -0.4,-0.1 -0.68,-0.1 h -0.9 v 2.9 z m 5.918,-0.07 c 0,-0.36 -0.08,-0.617 -0.24,-0.77 -0.153,-0.153 -0.35,-0.23 -0.59,-0.23 -0.126,0 -0.25,0.02 -0.37,0.06 -0.12,0.033 -0.216,0.073 -0.29,0.12 V 336 h -1.1 v -7 h 1.1 v 2.03 c 0.234,-0.087 0.504,-0.13 0.81,-0.13 0.347,0 0.657,0.063 0.93,0.19 0.267,0.12 0.474,0.3 0.62,0.54 0.154,0.24 0.23,0.543 0.23,0.91 V 336 h -1.1 z m 2.312,-1.94 h 1.02 l 0.08,0.04 c 0.273,-0.093 0.53,-0.14 0.77,-0.14 0.167,0 0.41,0.033 0.73,0.1 l 0.2,0.04 -0.26,1.07 c -0.187,-0.093 -0.37,-0.14 -0.55,-0.14 -0.247,0 -0.457,0.077 -0.63,0.23 -0.173,0.147 -0.26,0.343 -0.26,0.59 V 336 h -1.1 z m 6.413,5.01 c -0.72,0.073 -1.24,0.11 -1.56,0.11 -0.7,0 -1.257,-0.13 -1.67,-0.39 -0.414,-0.26 -0.62,-0.73 -0.62,-1.41 v -0.83 c 0,-0.66 0.23,-1.103 0.69,-1.33 0.22,-0.107 0.47,-0.16 0.75,-0.16 0.246,0 0.49,0.033 0.73,0.1 0.24,0.067 0.433,0.14 0.58,0.22 0,-0.247 -0.1,-0.413 -0.3,-0.5 -0.2,-0.093 -0.457,-0.14 -0.77,-0.14 l 0.09,-0.76 c 0.64,0 1.11,0.103 1.41,0.31 0.306,0.2 0.493,0.44 0.56,0.72 0.073,0.28 0.11,0.64 0.11,1.08 z m -1.1,-2.52 c -0.12,-0.087 -0.29,-0.167 -0.51,-0.24 -0.214,-0.08 -0.41,-0.12 -0.59,-0.12 -0.16,0 -0.29,0.04 -0.39,0.12 -0.1,0.08 -0.15,0.207 -0.15,0.38 v 0.55 c 0,0.607 0.356,0.91 1.07,0.91 0.206,0 0.396,-0.017 0.57,-0.05 z m 2.92,1.14 c 0,0.12 0.06,0.233 0.18,0.34 0.126,0.107 0.316,0.16 0.57,0.16 0.22,0 0.39,-0.053 0.51,-0.16 0.12,-0.113 0.18,-0.243 0.18,-0.39 0,-0.207 -0.077,-0.36 -0.23,-0.46 -0.147,-0.1 -0.387,-0.21 -0.72,-0.33 -0.287,-0.093 -0.524,-0.187 -0.71,-0.28 -0.187,-0.093 -0.354,-0.233 -0.5,-0.42 -0.147,-0.187 -0.234,-0.43 -0.26,-0.73 -0.02,-0.227 0.023,-0.453 0.13,-0.68 0.113,-0.233 0.3,-0.423 0.56,-0.57 0.266,-0.153 0.606,-0.23 1.02,-0.23 0.213,0 0.4,0.023 0.56,0.07 0.166,0.04 0.296,0.083 0.39,0.13 0.093,0.047 0.15,0.077 0.17,0.09 l -0.32,1.02 c -0.014,-0.013 -0.05,-0.037 -0.11,-0.07 -0.054,-0.04 -0.14,-0.077 -0.26,-0.11 -0.12,-0.033 -0.264,-0.05 -0.43,-0.05 -0.36,0 -0.54,0.1 -0.54,0.3 0,0.04 0.006,0.08 0.02,0.12 0.02,0.093 0.09,0.173 0.21,0.24 0.12,0.06 0.296,0.133 0.53,0.22 0.326,0.12 0.6,0.24 0.82,0.36 0.226,0.113 0.42,0.287 0.58,0.52 0.166,0.227 0.25,0.52 0.25,0.88 0,0.273 -0.067,0.53 -0.2,0.77 -0.134,0.233 -0.34,0.423 -0.62,0.57 -0.274,0.147 -0.617,0.22 -1.03,0.22 -0.38,0 -0.71,-0.063 -0.99,-0.19 -0.274,-0.133 -0.484,-0.307 -0.63,-0.52 -0.14,-0.213 -0.217,-0.45 -0.23,-0.71 z m 4.306,-0.11 c 0,0.187 0.05,0.333 0.15,0.44 0.107,0.1 0.26,0.15 0.46,0.15 0.307,0 0.717,-0.133 1.23,-0.4 l 0.4,0.95 c -0.24,0.153 -0.513,0.27 -0.82,0.35 -0.306,0.08 -0.613,0.12 -0.92,0.12 -0.493,0 -0.886,-0.12 -1.18,-0.36 -0.286,-0.247 -0.43,-0.613 -0.43,-1.1 v -2.05 c 0,-0.54 0.167,-0.96 0.5,-1.26 0.34,-0.3 0.787,-0.45 1.34,-0.45 0.554,0 0.984,0.15 1.29,0.45 0.314,0.293 0.47,0.703 0.47,1.23 v 1.52 l -2.49,0.13 z m 1.38,-1.91 c 0,-0.2 -0.063,-0.353 -0.19,-0.46 -0.126,-0.107 -0.283,-0.16 -0.47,-0.16 -0.253,0 -0.436,0.067 -0.55,0.2 -0.113,0.133 -0.17,0.28 -0.17,0.44 v 0.6 l 1.38,-0.09 z"
       id="path19" />
    <rect
       width="36"
       height="16"
       x="493"
       y="324"
       fill="#000000"
       rx="8"
       id="rect19" />
    <rect
       width="146.29601"
       height="28.704"
       x="150.20999"
       y="142.70401"
       fill="none"
       fill-opacity="1"
       stroke="#000000"
       stroke-opacity="1"
       rx="15"
       ry="15"
       id="rect24" />
    <path
       fill="#ffffff"
       d="m 500.24,333.44 c 0.027,0.235 0.123,0.424 0.288,0.568 0.165,0.144 0.381,0.216 0.648,0.216 0.224,0 0.405,-0.037 0.544,-0.112 0.144,-0.075 0.248,-0.165 0.312,-0.272 0.064,-0.107 0.096,-0.211 0.096,-0.312 0,-0.235 -0.059,-0.429 -0.176,-0.584 -0.112,-0.16 -0.253,-0.285 -0.424,-0.376 -0.165,-0.096 -0.392,-0.205 -0.68,-0.328 -0.315,-0.133 -0.565,-0.253 -0.752,-0.36 -0.181,-0.112 -0.339,-0.261 -0.472,-0.448 -0.128,-0.192 -0.192,-0.435 -0.192,-0.728 0,-0.235 0.067,-0.456 0.2,-0.664 0.133,-0.213 0.336,-0.387 0.608,-0.52 0.272,-0.133 0.605,-0.2 1,-0.2 0.261,0 0.477,0.019 0.648,0.056 0.171,0.037 0.344,0.099 0.52,0.184 l -0.28,0.832 c -0.192,-0.064 -0.349,-0.109 -0.472,-0.136 -0.117,-0.027 -0.253,-0.04 -0.408,-0.04 -0.304,0 -0.528,0.053 -0.672,0.16 -0.144,0.107 -0.208,0.243 -0.192,0.408 0.016,0.133 0.096,0.248 0.24,0.344 0.149,0.096 0.379,0.213 0.688,0.352 0.363,0.16 0.664,0.312 0.904,0.456 0.24,0.144 0.445,0.341 0.616,0.592 0.176,0.251 0.264,0.557 0.264,0.92 0,0.475 -0.157,0.867 -0.472,1.176 -0.315,0.309 -0.795,0.464 -1.44,0.464 -0.395,0 -0.733,-0.072 -1.016,-0.216 -0.277,-0.149 -0.491,-0.339 -0.64,-0.568 -0.144,-0.235 -0.221,-0.477 -0.232,-0.728 z m 3.868,-4.04 h 2.672 v 0.88 h -1.792 v 1.416 h 1.096 l -0.248,0.84 h -0.848 v 1.664 h 1.776 v 0.8 h -2.656 z m 6.511,5.416 c -0.475,0.176 -0.917,0.264 -1.328,0.264 -0.464,0 -0.84,-0.123 -1.128,-0.368 -0.288,-0.245 -0.432,-0.637 -0.432,-1.176 v -2.568 c 0,-0.405 0.056,-0.712 0.168,-0.92 0.117,-0.208 0.293,-0.384 0.528,-0.528 0.235,-0.133 0.523,-0.2 0.864,-0.2 0.416,0 0.792,0.088 1.128,0.264 l -0.248,0.8 c -0.245,-0.091 -0.515,-0.136 -0.808,-0.136 -0.224,0 -0.405,0.061 -0.544,0.184 -0.139,0.123 -0.208,0.277 -0.208,0.464 v 2.624 c 0,0.448 0.251,0.672 0.752,0.672 0.16,0 0.32,-0.016 0.48,-0.048 0.16,-0.037 0.373,-0.091 0.64,-0.16 z m 2.694,-1.376 h -1.168 V 335 h -0.88 v -5.6 h 1.896 c 0.352,0 0.645,0.088 0.88,0.264 0.234,0.171 0.408,0.4 0.52,0.688 0.117,0.288 0.176,0.605 0.176,0.952 0,0.261 -0.011,0.488 -0.032,0.68 -0.022,0.192 -0.078,0.392 -0.168,0.6 -0.086,0.208 -0.224,0.395 -0.416,0.56 l 0.624,1.856 h -0.896 z m -0.36,-0.84 c 0.261,0 0.453,-0.067 0.576,-0.2 0.128,-0.139 0.205,-0.296 0.232,-0.472 0.032,-0.176 0.048,-0.384 0.048,-0.624 0,-0.283 -0.04,-0.496 -0.12,-0.64 -0.08,-0.149 -0.192,-0.248 -0.336,-0.296 -0.144,-0.053 -0.331,-0.08 -0.56,-0.08 h -0.648 v 2.312 z m 2.827,-3.2 h 2.672 v 0.88 h -1.792 v 1.416 h 1.096 l -0.248,0.84 h -0.848 v 1.664 h 1.776 v 0.8 h -2.656 z m 4.247,0.888 h -1.152 V 329.4 h 3.216 v 0.888 h -1.184 V 335 h -0.88 z"
       id="path20" />
    <path
       stroke="#000000"
       stroke-linecap="round"
       d="m 425,352 h -3 c -3.866,0 -7,3.134 -7,7 v 3"
       id="path21" />
    <path
       stroke="#000000"
       stroke-linecap="round"
       d="m 665,362 v -3 c 0,-3.866 -3.134,-7 -7,-7 h -3"
       id="path22" />
    <path
       stroke="#000000"
       stroke-linecap="round"
       d="m 415,412 v 3 c 0,3.866 3.134,7 7,7 h 3"
       id="path23" />
    <path
       stroke="#000000"
       stroke-linecap="round"
       d="m 655,422 h 3 c 3.866,0 7,-3.134 7,-7 v -3"
       id="path24" />
    <text
       xml:space="preserve"
       x="152.98801"
       y="391.617"
       fill="#000000"
       font-family="Sans, Arial"
       font-size="9px"
       id="ADDRESS_BOX"
       style="white-space:pre">##ADDRESS_BOX</text>
    <text
       xml:space="preserve"
       x="424"
       y="366"
       fill="#000000"
       font-family="Sans, Arial"
       id="MNEMONIC_L1"
       font-size="9px"
       style="white-space:pre">##MNEMONIC_L1</text>
    <text
       xml:space="preserve"
       x="424"
       y="382"
       fill="#000000"
       font-family="Sans, Arial"
       font-size="9px"
       id="MNEMONIC_L2"
       style="white-space:pre">##MNEMONIC_L2</text>
    <text
       xml:space="preserve"
       x="424"
       y="398"
       fill="#000000"
       id="MNEMONIC_L3"
       font-family="Sans, Arial"
       font-size="9px"
       style="white-space:pre">##MNEMONIC_L3</text>
    <text
       xml:space="preserve"
       x="424"
       y="415"
       fill="#000000"
       id="text1"
       font-family="Sans, Arial"
       font-size="9px"
       style="white-space:pre">##MNEMONIC_L4</text>
  </g>
</svg>
