<?xml version="1.0" encoding="UTF-8"?>
<svg width="210mm" height="148mm" fill="none" version="1.1" viewBox="0 0 793.7 559.37" xmlns="http://www.w3.org/2000/svg" xmlns:xlink="http://www.w3.org/1999/xlink">
 <defs>
  <linearGradient id="swatch25">
   <stop stop-color="#757171" offset="0"/>
  </linearGradient>
  <linearGradient id="linearGradient25-8" x1="19" x2="551" y1="168.25" y2="168.25" gradientUnits="userSpaceOnUse" xlink:href="#swatch25"/>
  <linearGradient id="linearGradient26-8" x1="19" x2="551" y1="155.67" y2="155.67" gradientUnits="userSpaceOnUse" xlink:href="#swatch25"/>
  <linearGradient id="linearGradient27-5" x1="19" x2="551" y1="143.1" y2="143.1" gradientUnits="userSpaceOnUse" xlink:href="#swatch25"/>
  <linearGradient id="linearGradient28-4" x1="19" x2="551" y1="130.52" y2="130.52" gradientUnits="userSpaceOnUse" xlink:href="#swatch25"/>
  <linearGradient id="linearGradient29-3" x1="19" x2="551" y1="117.94" y2="117.94" gradientUnits="userSpaceOnUse" xlink:href="#swatch25"/>
  <linearGradient id="linearGradient30-6" x1="19" x2="551" y1="105.36" y2="105.36" gradientUnits="userSpaceOnUse" xlink:href="#swatch25"/>
 </defs>
 <g transform="translate(-4.6496 -1.315)">
  <text x="397.035" y="268.69299" fill="#000000" xml:space="preserve"><tspan x="397.035" y="268.69299"/></text>
  <rect x="389.17" y="353.68" width="281.41" height="68.028" rx="11.545" ry="11.695" fill="#999" opacity=".89" stroke-width="2.1921" style="mix-blend-mode:normal"/>
  <text x="360.92401" y="161.903" fill="none" font-family="Menlo-serif" font-size="8px" font-weight="400" stroke="#000000" xml:space="preserve"><tspan x="360.92401" y="161.903" font-family="Menlo-serif" font-weight="400"/></text>
  <rect x="124" y="117" width="555" height="328" rx="31" stroke="#000" stroke-width="2"/>
  <g fill="#666" stroke-linecap="round" stroke-width=".4767">
   <line x1="172.24" x2="655.17" y1="215.35" y2="215.35" stroke="url(#linearGradient30-6)"/>
   <line x1="172.24" x2="655.17" y1="227.93" y2="227.93" stroke="url(#linearGradient29-3)"/>
   <line x1="172.24" x2="655.17" y1="240.52" y2="240.52" stroke="url(#linearGradient28-4)"/>
   <line x1="172.24" x2="655.17" y1="253.1" y2="253.1" stroke="url(#linearGradient27-5)"/>
   <line x1="172.24" x2="655.17" y1="265.68" y2="265.68" stroke="url(#linearGradient26-8)"/>
   <line x1="172.24" x2="655.17" y1="278.26" y2="278.26" stroke="url(#linearGradient25-8)"/>
  </g>
  <path d="m148.88 195.27v4.73h-1.1v-7h1.1l2.71 4.7v-4.7h1.11v7h-1.11zm9.1339 2.89c0 0.56-0.1533 1.0233-0.46 1.39s-0.77 0.55-1.39 0.55-1.09-0.1833-1.41-0.55c-0.3133-0.3733-0.47-0.8367-0.47-1.39v-1.32c0-0.6333 0.16-1.1167 0.48-1.45 0.3267-0.34 0.7933-0.51 1.4-0.51 0.58 0 1.0333 0.1767 1.36 0.53 0.3267 0.3467 0.49 0.8233 0.49 1.43zm-1.09-1.32c0-0.3533-0.0733-0.5833-0.22-0.69s-0.3267-0.16-0.54-0.16c-0.52 0-0.78 0.2833-0.78 0.85v1.42c0 0.2667 0.0733 0.46 0.22 0.58s0.3333 0.18 0.56 0.18c0.22 0 0.4-0.0633 0.54-0.19 0.1467-0.1267 0.22-0.3167 0.22-0.57zm3.4424 3.29c-1.0134-0.02-1.52-0.5033-1.52-1.45v-5.68h1.12v1.99h0.95l-0.24 1.03h-0.71v2.66c0 0.2267 0.0633 0.38 0.19 0.46 0.1266 0.0733 0.3066 0.11 0.54 0.11zm2.2441-1.62c0 0.1867 0.05 0.3333 0.15 0.44 0.1067 0.1 0.26 0.15 0.46 0.15 0.3067 0 0.7167-0.1333 1.23-0.4l0.4 0.95c-0.24 0.1533-0.5133 0.27-0.82 0.35s-0.6133 0.12-0.92 0.12c-0.4933 0-0.8867-0.12-1.18-0.36-0.2867-0.2467-0.43-0.6133-0.43-1.1v-2.05c0-0.54 0.1667-0.96 0.5-1.26 0.34-0.3 0.7867-0.45 1.34-0.45s0.9833 0.15 1.29 0.45c0.3133 0.2933 0.47 0.7033 0.47 1.23v1.52l-2.49 0.13zm1.38-1.91c0-0.2-0.0633-0.3533-0.19-0.46s-0.2833-0.16-0.47-0.16c-0.2533 0-0.4367 0.0667-0.55 0.2s-0.17 0.28-0.17 0.44v0.6l1.38-0.09zm2.9559 2.02c0 0.12 0.06 0.2333 0.18 0.34 0.1267 0.1067 0.3167 0.16 0.57 0.16 0.22 0 0.39-0.0533 0.51-0.16 0.12-0.1133 0.18-0.2433 0.18-0.39 0-0.2067-0.0766-0.36-0.23-0.46-0.1466-0.1-0.3866-0.21-0.72-0.33-0.2866-0.0933-0.5233-0.1867-0.71-0.28-0.1866-0.0933-0.3533-0.2333-0.5-0.42-0.1466-0.1867-0.2333-0.43-0.26-0.73-0.02-0.2267 0.0234-0.4533 0.13-0.68 0.1134-0.2333 0.3-0.4233 0.56-0.57 0.2667-0.1533 0.6067-0.23 1.02-0.23 0.2134 0 0.4 0.0233 0.56 0.07 0.1667 0.04 0.2967 0.0833 0.39 0.13 0.0934 0.0467 0.15 0.0767 0.17 0.09l-0.32 1.02c-0.0133-0.0133-0.05-0.0367-0.11-0.07-0.0533-0.04-0.14-0.0767-0.26-0.11s-0.2633-0.05-0.43-0.05c-0.36 0-0.54 0.1-0.54 0.3 0 0.04 7e-3 0.08 0.02 0.12 0.02 0.0933 0.09 0.1733 0.21 0.24 0.12 0.06 0.2967 0.1333 0.53 0.22 0.3267 0.12 0.6 0.24 0.82 0.36 0.2267 0.1133 0.42 0.2867 0.58 0.52 0.1667 0.2267 0.25 0.52 0.25 0.88 0 0.2733-0.0666 0.53-0.2 0.77-0.1333 0.2333-0.34 0.4233-0.62 0.57-0.2733 0.147-0.6166 0.22-1.03 0.22-0.38 0-0.71-0.063-0.99-0.19-0.2733-0.1333-0.4833-0.3067-0.63-0.52-0.14-0.2133-0.2166-0.45-0.23-0.71z" fill="#000"/>
  <line x1="137.25" x2="668.75" y1="299.75" y2="299.75" stroke="#000" stroke-linecap="round" stroke-width=".5"/>
  <path d="m157.09 369.25h-1.61l-0.39 1.83h-1.24l1.64-7h1.55l1.77 7h-1.31zm-1.35-1.17h1.09l-0.57-2.16zm3.7581-0.46c0-0.7 0.2834-1.18 0.85-1.44 0.2734-0.133 0.5934-0.2 0.96-0.2 0.3134 0 0.5767 0.04 0.79 0.12v-2.02h1.09v7l-0.55 0.05c-0.4333 0.047-0.7733 0.07-1.02 0.07-0.2466 0-0.48-0.023-0.7-0.07-0.2133-0.047-0.4266-0.123-0.64-0.23-0.24-0.12-0.43-0.297-0.57-0.53s-0.21-0.52-0.21-0.86zm2.6-0.36c-0.24-0.113-0.4633-0.17-0.67-0.17-0.24 0-0.44 0.077-0.6 0.23s-0.24 0.387-0.24 0.7v1.56c0 0.173 0.0934 0.317 0.28 0.43 0.1867 0.113 0.4234 0.17 0.71 0.17 0.18 0 0.3534-0.023 0.52-0.07zm2.4586 0.36c0-0.7 0.2834-1.18 0.85-1.44 0.2734-0.133 0.5934-0.2 0.96-0.2 0.3134 0 0.5767 0.04 0.79 0.12v-2.02h1.09v7l-0.55 0.05c-0.4333 0.047-0.7733 0.07-1.02 0.07-0.2466 0-0.48-0.023-0.7-0.07-0.2133-0.047-0.4266-0.123-0.64-0.23-0.24-0.12-0.43-0.297-0.57-0.53s-0.21-0.52-0.21-0.86zm2.6-0.36c-0.24-0.113-0.4633-0.17-0.67-0.17-0.24 0-0.44 0.077-0.6 0.23s-0.24 0.387-0.24 0.7v1.56c0 0.173 0.0934 0.317 0.28 0.43 0.1867 0.113 0.4234 0.17 0.71 0.17 0.18 0 0.3534-0.023 0.52-0.07zm2.0933-1.19h1.02l0.08 0.04c0.2733-0.093 0.53-0.14 0.77-0.14 0.1667 0 0.41 0.033 0.73 0.1l0.2 0.04-0.26 1.07c-0.1867-0.093-0.37-0.14-0.55-0.14-0.2467 0-0.4567 0.077-0.63 0.23-0.1733 0.147-0.26 0.343-0.26 0.59v3.22h-1.1zm4.1703 3.52c0 0.187 0.05 0.333 0.15 0.44 0.1067 0.1 0.26 0.15 0.46 0.15 0.3067 0 0.7167-0.133 1.23-0.4l0.4 0.95c-0.24 0.153-0.5133 0.27-0.82 0.35s-0.6133 0.12-0.92 0.12c-0.4933 0-0.8867-0.12-1.18-0.36-0.2867-0.247-0.43-0.613-0.43-1.1v-2.05c0-0.54 0.1667-0.96 0.5-1.26 0.34-0.3 0.7867-0.45 1.34-0.45s0.9833 0.15 1.29 0.45c0.3133 0.293 0.47 0.703 0.47 1.23v1.52l-2.49 0.13zm1.38-1.91c0-0.2-0.0633-0.353-0.19-0.46s-0.2833-0.16-0.47-0.16c-0.2533 0-0.4367 0.067-0.55 0.2s-0.17 0.28-0.17 0.44v0.6l1.38-0.09zm2.956 2.02c0 0.12 0.06 0.233 0.18 0.34 0.1266 0.107 0.3166 0.16 0.57 0.16 0.22 0 0.39-0.053 0.51-0.16 0.12-0.113 0.18-0.243 0.18-0.39 0-0.207-0.0767-0.36-0.23-0.46-0.1467-0.1-0.3867-0.21-0.72-0.33-0.2867-0.093-0.5234-0.187-0.71-0.28-0.1867-0.093-0.3534-0.233-0.5-0.42-0.1467-0.187-0.2334-0.43-0.26-0.73-0.02-0.227 0.0233-0.453 0.13-0.68 0.1133-0.233 0.3-0.423 0.56-0.57 0.2666-0.153 0.6066-0.23 1.02-0.23 0.2133 0 0.4 0.023 0.56 0.07 0.1666 0.04 0.2966 0.083 0.39 0.13 0.0933 0.047 0.15 0.077 0.17 0.09l-0.32 1.02c-0.0134-0.013-0.05-0.037-0.11-0.07-0.0534-0.04-0.14-0.077-0.26-0.11s-0.2634-0.05-0.43-0.05c-0.36 0-0.54 0.1-0.54 0.3 0 0.04 7e-3 0.08 0.02 0.12 0.02 0.093 0.09 0.173 0.21 0.24 0.12 0.06 0.2966 0.133 0.53 0.22 0.3266 0.12 0.6 0.24 0.82 0.36 0.2266 0.113 0.42 0.287 0.58 0.52 0.1666 0.227 0.25 0.52 0.25 0.88 0 0.273-0.0667 0.53-0.2 0.77-0.1334 0.233-0.34 0.423-0.62 0.57-0.2734 0.147-0.6167 0.22-1.03 0.22-0.38 0-0.71-0.063-0.99-0.19-0.2734-0.133-0.4834-0.307-0.63-0.52-0.14-0.213-0.2167-0.45-0.23-0.71zm4.3066 0c0 0.12 0.06 0.233 0.18 0.34 0.1267 0.107 0.3167 0.16 0.57 0.16 0.22 0 0.39-0.053 0.51-0.16 0.12-0.113 0.18-0.243 0.18-0.39 0-0.207-0.0767-0.36-0.23-0.46-0.1467-0.1-0.3867-0.21-0.72-0.33-0.2867-0.093-0.5233-0.187-0.71-0.28s-0.3533-0.233-0.5-0.42-0.2333-0.43-0.26-0.73c-0.02-0.227 0.0233-0.453 0.13-0.68 0.1133-0.233 0.3-0.423 0.56-0.57 0.2667-0.153 0.6067-0.23 1.02-0.23 0.2133 0 0.4 0.023 0.56 0.07 0.1667 0.04 0.2967 0.083 0.39 0.13s0.15 0.077 0.17 0.09l-0.32 1.02c-0.0133-0.013-0.05-0.037-0.11-0.07-0.0533-0.04-0.14-0.077-0.26-0.11s-0.2633-0.05-0.43-0.05c-0.36 0-0.54 0.1-0.54 0.3 0 0.04 7e-3 0.08 0.02 0.12 0.02 0.093 0.09 0.173 0.21 0.24 0.12 0.06 0.2967 0.133 0.53 0.22 0.3267 0.12 0.6 0.24 0.82 0.36 0.2267 0.113 0.42 0.287 0.58 0.52 0.1667 0.227 0.25 0.52 0.25 0.88 0 0.273-0.0667 0.53-0.2 0.77-0.1333 0.233-0.34 0.423-0.62 0.57-0.2733 0.147-0.6167 0.22-1.03 0.22-0.38 0-0.71-0.063-0.99-0.19-0.2733-0.133-0.4833-0.307-0.63-0.52-0.14-0.213-0.2167-0.45-0.23-0.71z" fill="#000"/>
  <g stroke="#000" stroke-linecap="round">
   <path d="m157 352h-3c-3.866 0-7 3.134-7 7v3"/>
   <path d="m384 363v-3c0-3.866-3.134-7-7-7h-3"/>
   <path d="m147 410v3c0 3.866 3.134 7 7 7h3"/>
   <path d="m374 422h3c3.866 0 7-3.134 7-7v-3"/>
  </g>
  <path d="m396.04 338.3-1.17 3.7h-0.84l-1.15-3.69v3.69h-1.1v-7h1.1l1.57 4.63 1.59-4.63h1.1v7h-1.1zm5.133 0.55c0-0.267-0.076-0.48-0.23-0.64-0.146-0.167-0.346-0.25-0.6-0.25-0.206 0-0.43 0.06-0.67 0.18v3.86h-1.09v-5.01h0.97l0.13 0.06c0.28-0.093 0.57-0.14 0.87-0.14 0.334 0 0.624 0.06 0.87 0.18 0.267 0.12 0.474 0.3 0.62 0.54 0.154 0.24 0.23 0.543 0.23 0.91v3.46h-1.1zm3.23 1.66c0 0.187 0.05 0.333 0.15 0.44 0.107 0.1 0.26 0.15 0.46 0.15 0.307 0 0.717-0.133 1.23-0.4l0.4 0.95c-0.24 0.153-0.513 0.27-0.82 0.35-0.306 0.08-0.613 0.12-0.92 0.12-0.493 0-0.886-0.12-1.18-0.36-0.286-0.247-0.43-0.613-0.43-1.1v-2.05c0-0.54 0.167-0.96 0.5-1.26 0.34-0.3 0.787-0.45 1.34-0.45 0.554 0 0.984 0.15 1.29 0.45 0.314 0.293 0.47 0.703 0.47 1.23v1.52l-2.49 0.13zm1.38-1.91c0-0.2-0.063-0.353-0.19-0.46-0.126-0.107-0.283-0.16-0.47-0.16-0.253 0-0.436 0.067-0.55 0.2-0.113 0.133-0.17 0.28-0.17 0.44v0.6l1.38-0.09zm7.416 0.36c0-0.36-0.05-0.62-0.15-0.78-0.093-0.16-0.246-0.24-0.46-0.24-0.153 0-0.36 0.047-0.62 0.14l-0.17 0.07c0.014 0.04 0.024 0.087 0.03 0.14 7e-3 0.053 0.01 0.103 0.01 0.15v3.56h-1.1v-3.01c0-0.333-0.076-0.59-0.23-0.77-0.153-0.18-0.36-0.27-0.62-0.27-0.233 0-0.476 0.073-0.73 0.22v3.83h-1.1v-5.01h0.97l0.13 0.07c0.22-0.1 0.47-0.15 0.75-0.15 0.227 0 0.447 0.04 0.66 0.12 0.214 0.073 0.4 0.193 0.56 0.36 0.094-0.053 0.234-0.127 0.42-0.22 0.394-0.18 0.774-0.27 1.14-0.27 0.474 0 0.86 0.147 1.16 0.44 0.3 0.287 0.45 0.687 0.45 1.2v3.46h-1.1zm6.002 1.2c0 0.56-0.153 1.023-0.46 1.39-0.306 0.367-0.77 0.55-1.39 0.55s-1.09-0.183-1.41-0.55c-0.313-0.373-0.47-0.837-0.47-1.39v-1.32c0-0.633 0.16-1.117 0.48-1.45 0.327-0.34 0.794-0.51 1.4-0.51 0.58 0 1.034 0.177 1.36 0.53 0.327 0.347 0.49 0.823 0.49 1.43zm-1.09-1.32c0-0.353-0.073-0.583-0.22-0.69-0.146-0.107-0.326-0.16-0.54-0.16-0.52 0-0.78 0.283-0.78 0.85v1.42c0 0.267 0.074 0.46 0.22 0.58 0.147 0.12 0.334 0.18 0.56 0.18 0.22 0 0.4-0.063 0.54-0.19 0.147-0.127 0.22-0.317 0.22-0.57zm4.713 0.01c0-0.267-0.077-0.48-0.23-0.64-0.147-0.167-0.347-0.25-0.6-0.25-0.207 0-0.43 0.06-0.67 0.18v3.86h-1.09v-5.01h0.97l0.13 0.06c0.28-0.093 0.57-0.14 0.87-0.14 0.333 0 0.623 0.06 0.87 0.18 0.266 0.12 0.473 0.3 0.62 0.54 0.153 0.24 0.23 0.543 0.23 0.91v3.46h-1.1zm3.15-2.77c-0.16 0-0.3-0.06-0.42-0.18s-0.18-0.26-0.18-0.42c0-0.153 0.06-0.287 0.18-0.4 0.12-0.12 0.26-0.18 0.42-0.18 0.153 0 0.286 0.06 0.4 0.18 0.12 0.113 0.18 0.247 0.18 0.4 0 0.16-0.06 0.3-0.18 0.42-0.114 0.12-0.247 0.18-0.4 0.18zm-0.58 0.91h1.1v5.01h-1.1zm5.221 4.95c-0.413 0.107-0.813 0.16-1.2 0.16-0.36 0-0.66-0.04-0.9-0.12-0.393-0.133-0.68-0.337-0.86-0.61-0.173-0.28-0.26-0.67-0.26-1.17v-1.28c0-0.66 0.173-1.16 0.52-1.5 0.347-0.347 0.793-0.52 1.34-0.52 0.433 0 0.88 0.107 1.34 0.32l-0.3 0.95c-0.32-0.127-0.607-0.19-0.86-0.19-0.3 0-0.533 0.083-0.7 0.25-0.16 0.167-0.24 0.377-0.24 0.63v1.45c0 0.253 0.09 0.433 0.27 0.54s0.41 0.16 0.69 0.16c0.16 0 0.32-0.017 0.48-0.05s0.287-0.067 0.38-0.1zm3.811-6.94h2.28c0.7 0 1.217 0.227 1.55 0.68 0.34 0.447 0.51 1.01 0.51 1.69 0 1.787-0.656 2.68-1.97 2.68h-1.27v1.95h-1.1zm2.04 4c0.38 0 0.657-0.083 0.83-0.25 0.18-0.167 0.287-0.353 0.32-0.56 0.034-0.213 0.05-0.48 0.05-0.8 0-0.353-0.05-0.623-0.15-0.81-0.093-0.193-0.23-0.32-0.41-0.38-0.173-0.067-0.4-0.1-0.68-0.1h-0.9v2.9zm5.918-0.07c0-0.36-0.08-0.617-0.24-0.77-0.153-0.153-0.35-0.23-0.59-0.23-0.126 0-0.25 0.02-0.37 0.06-0.12 0.033-0.216 0.073-0.29 0.12v3.89h-1.1v-7h1.1v2.03c0.234-0.087 0.504-0.13 0.81-0.13 0.347 0 0.657 0.063 0.93 0.19 0.267 0.12 0.474 0.3 0.62 0.54 0.154 0.24 0.23 0.543 0.23 0.91v3.46h-1.1zm2.312-1.94h1.02l0.08 0.04c0.273-0.093 0.53-0.14 0.77-0.14 0.167 0 0.41 0.033 0.73 0.1l0.2 0.04-0.26 1.07c-0.187-0.093-0.37-0.14-0.55-0.14-0.247 0-0.457 0.077-0.63 0.23-0.173 0.147-0.26 0.343-0.26 0.59v3.22h-1.1zm6.413 5.01c-0.72 0.073-1.24 0.11-1.56 0.11-0.7 0-1.257-0.13-1.67-0.39-0.414-0.26-0.62-0.73-0.62-1.41v-0.83c0-0.66 0.23-1.103 0.69-1.33 0.22-0.107 0.47-0.16 0.75-0.16 0.246 0 0.49 0.033 0.73 0.1s0.433 0.14 0.58 0.22c0-0.247-0.1-0.413-0.3-0.5-0.2-0.093-0.457-0.14-0.77-0.14l0.09-0.76c0.64 0 1.11 0.103 1.41 0.31 0.306 0.2 0.493 0.44 0.56 0.72 0.073 0.28 0.11 0.64 0.11 1.08zm-1.1-2.52c-0.12-0.087-0.29-0.167-0.51-0.24-0.214-0.08-0.41-0.12-0.59-0.12-0.16 0-0.29 0.04-0.39 0.12s-0.15 0.207-0.15 0.38v0.55c0 0.607 0.356 0.91 1.07 0.91 0.206 0 0.396-0.017 0.57-0.05zm2.92 1.14c0 0.12 0.06 0.233 0.18 0.34 0.126 0.107 0.316 0.16 0.57 0.16 0.22 0 0.39-0.053 0.51-0.16 0.12-0.113 0.18-0.243 0.18-0.39 0-0.207-0.077-0.36-0.23-0.46-0.147-0.1-0.387-0.21-0.72-0.33-0.287-0.093-0.524-0.187-0.71-0.28-0.187-0.093-0.354-0.233-0.5-0.42-0.147-0.187-0.234-0.43-0.26-0.73-0.02-0.227 0.023-0.453 0.13-0.68 0.113-0.233 0.3-0.423 0.56-0.57 0.266-0.153 0.606-0.23 1.02-0.23 0.213 0 0.4 0.023 0.56 0.07 0.166 0.04 0.296 0.083 0.39 0.13 0.093 0.047 0.15 0.077 0.17 0.09l-0.32 1.02c-0.014-0.013-0.05-0.037-0.11-0.07-0.054-0.04-0.14-0.077-0.26-0.11s-0.264-0.05-0.43-0.05c-0.36 0-0.54 0.1-0.54 0.3 0 0.04 6e-3 0.08 0.02 0.12 0.02 0.093 0.09 0.173 0.21 0.24 0.12 0.06 0.296 0.133 0.53 0.22 0.326 0.12 0.6 0.24 0.82 0.36 0.226 0.113 0.42 0.287 0.58 0.52 0.166 0.227 0.25 0.52 0.25 0.88 0 0.273-0.067 0.53-0.2 0.77-0.134 0.233-0.34 0.423-0.62 0.57-0.274 0.147-0.617 0.22-1.03 0.22-0.38 0-0.71-0.063-0.99-0.19-0.274-0.133-0.484-0.307-0.63-0.52-0.14-0.213-0.217-0.45-0.23-0.71zm4.306-0.11c0 0.187 0.05 0.333 0.15 0.44 0.107 0.1 0.26 0.15 0.46 0.15 0.307 0 0.717-0.133 1.23-0.4l0.4 0.95c-0.24 0.153-0.513 0.27-0.82 0.35-0.306 0.08-0.613 0.12-0.92 0.12-0.493 0-0.886-0.12-1.18-0.36-0.286-0.247-0.43-0.613-0.43-1.1v-2.05c0-0.54 0.167-0.96 0.5-1.26 0.34-0.3 0.787-0.45 1.34-0.45 0.554 0 0.984 0.15 1.29 0.45 0.314 0.293 0.47 0.703 0.47 1.23v1.52l-2.49 0.13zm1.38-1.91c0-0.2-0.063-0.353-0.19-0.46-0.126-0.107-0.283-0.16-0.47-0.16-0.253 0-0.436 0.067-0.55 0.2-0.113 0.133-0.17 0.28-0.17 0.44v0.6l1.38-0.09z" fill="#000"/>
  <rect x="469" y="330" width="36" height="16" rx="8" ry="8" fill="#000"/>
  <rect x="150.21" y="142.7" width="146.3" height="28.704" rx="15" ry="15" fill="none" stroke="#000"/>
  <path d="m476.24 339.44c0.027 0.235 0.123 0.424 0.288 0.568s0.381 0.216 0.648 0.216c0.224 0 0.405-0.037 0.544-0.112 0.144-0.075 0.248-0.165 0.312-0.272s0.096-0.211 0.096-0.312c0-0.235-0.059-0.429-0.176-0.584-0.112-0.16-0.253-0.285-0.424-0.376-0.165-0.096-0.392-0.205-0.68-0.328-0.315-0.133-0.565-0.253-0.752-0.36-0.181-0.112-0.339-0.261-0.472-0.448-0.128-0.192-0.192-0.435-0.192-0.728 0-0.235 0.067-0.456 0.2-0.664 0.133-0.213 0.336-0.387 0.608-0.52s0.605-0.2 1-0.2c0.261 0 0.477 0.019 0.648 0.056s0.344 0.099 0.52 0.184l-0.28 0.832c-0.192-0.064-0.349-0.109-0.472-0.136-0.117-0.027-0.253-0.04-0.408-0.04-0.304 0-0.528 0.053-0.672 0.16s-0.208 0.243-0.192 0.408c0.016 0.133 0.096 0.248 0.24 0.344 0.149 0.096 0.379 0.213 0.688 0.352 0.363 0.16 0.664 0.312 0.904 0.456s0.445 0.341 0.616 0.592c0.176 0.251 0.264 0.557 0.264 0.92 0 0.475-0.157 0.867-0.472 1.176s-0.795 0.464-1.44 0.464c-0.395 0-0.733-0.072-1.016-0.216-0.277-0.149-0.491-0.339-0.64-0.568-0.144-0.235-0.221-0.477-0.232-0.728zm3.868-4.04h2.672v0.88h-1.792v1.416h1.096l-0.248 0.84h-0.848v1.664h1.776v0.8h-2.656zm6.511 5.416c-0.475 0.176-0.917 0.264-1.328 0.264-0.464 0-0.84-0.123-1.128-0.368s-0.432-0.637-0.432-1.176v-2.568c0-0.405 0.056-0.712 0.168-0.92 0.117-0.208 0.293-0.384 0.528-0.528 0.235-0.133 0.523-0.2 0.864-0.2 0.416 0 0.792 0.088 1.128 0.264l-0.248 0.8c-0.245-0.091-0.515-0.136-0.808-0.136-0.224 0-0.405 0.061-0.544 0.184s-0.208 0.277-0.208 0.464v2.624c0 0.448 0.251 0.672 0.752 0.672 0.16 0 0.32-0.016 0.48-0.048 0.16-0.037 0.373-0.091 0.64-0.16zm2.694-1.376h-1.168v1.56h-0.88v-5.6h1.896c0.352 0 0.645 0.088 0.88 0.264 0.234 0.171 0.408 0.4 0.52 0.688 0.117 0.288 0.176 0.605 0.176 0.952 0 0.261-0.011 0.488-0.032 0.68-0.022 0.192-0.078 0.392-0.168 0.6-0.086 0.208-0.224 0.395-0.416 0.56l0.624 1.856h-0.896zm-0.36-0.84c0.261 0 0.453-0.067 0.576-0.2 0.128-0.139 0.205-0.296 0.232-0.472 0.032-0.176 0.048-0.384 0.048-0.624 0-0.283-0.04-0.496-0.12-0.64-0.08-0.149-0.192-0.248-0.336-0.296-0.144-0.053-0.331-0.08-0.56-0.08h-0.648v2.312zm2.827-3.2h2.672v0.88h-1.792v1.416h1.096l-0.248 0.84h-0.848v1.664h1.776v0.8h-2.656zm4.247 0.888h-1.152v-0.888h3.216v0.888h-1.184v4.712h-0.88z" fill="#fff"/>
  <g stroke="#000" stroke-linecap="round">
   <path d="m400.19 354.06h-3c-3.866 0-7 3.134-7 7v3"/>
   <path d="m669.52 364.39v-3c0-3.866-3.134-7-7-7h-3"/>
   <path d="m389.94 410.94v3c0 3.866 3.134 7 7 7h3"/>
   <path d="m659.25 421.2h3c3.866 0 7-3.134 7-7v-3"/>
  </g>
  <g fill="#000000">
   <text id="ADDRESS_BOX" x="152.98801" y="391.617" font-family="Sans, Arial" font-size="9px" style="white-space:pre" xml:space="preserve">##ADDRESS_BOX</text>
   <g font-family="'Fira Code', Arial">
    <text x="394" y="366" font-size="8px" style="white-space:pre" xml:space="preserve">##MNEMONIC_L1</text>
    <g font-size="7px">
     <text x="394.05435" y="382.45743" style="white-space:pre" xml:space="preserve">##MNEMONIC_L2</text>
     <text x="394.05435" y="398.72873" style="white-space:pre" xml:space="preserve">##MNEMONIC_L3</text>
     <text x="394.05435" y="415" style="white-space:pre" xml:space="preserve">##MNEMONIC_L4</text>
    </g>
   </g>
  </g>
 </g>
 <text x="158.07805" y="160.47583" fill="#000000" font-family="Menlo, Arial" font-size="13px" xml:space="preserve">##ADDRESS_NOT</text>
 <text transform="scale(1.0952 .91307)" x="158" y="231" fill="#808080" font-family="'Skia', Arial" font-size="12" xml:space="preserve">##NOTE_BOX</text>
</svg>
